# xmcd
#
# Track frame offsets: 
#        150
#        16715
#        33315
#        51855
#        69290
#        87395
#        100927
#        120002
#        137682
#        154825
#
# Disc length: 2248 seconds
#
# Revision: 1
# Processed by: cddbd v1.5.2PL0 Copyright (c) Steve Scherf et al.
# Submitted via: ExactAudioCopy v0.99pb3
#
DISCID=7008c60a
DTITLE=มนต์สิทธิ์  คำสร้อย - หมอลำมนต์สิทธิ์ ชุด 1
DYEAR=1900
DGENRE=Country
TTITLE0=สงสารเมียเขา
TTITLE1=คิดฮอดหมอลำซิ่ง
TTITLE2=กำพร้าลาบวช
TTITLE3=ขอเวลาสร้างตัว
TTITLE4=แข่งเรือบ้านหนองหอย
TTITLE5=อ้อนเดือนที่ศาลาแดง
TTITLE6=ตามรักสุดของฟ้า
TTITLE7=รักร้างกลางงานวัด
TTITLE8=ฮักน้องที่นิสัย
TTITLE9=ชมสาวซาวจังหวัด
EXTD=
EXTT0=
EXTT1=
EXTT2=
EXTT3=
EXTT4=
EXTT5=
EXTT6=
EXTT7=
EXTT8=
EXTT9=
PLAYORDER=
